<?xml version="1.0" encoding="UTF-8" standalone="no"?>
<!DOCTYPE svg PUBLIC "-//W3C//DTD SVG 1.1//EN"
 "http://www.w3.org/Graphics/SVG/1.1/DTD/svg11.dtd">
<!-- Generated by graphviz version 2.40.1 (20161225.0304)
 -->
<!-- Title: %0 Pages: 1 -->
<svg width="998pt" height="2048pt"
 viewBox="0.00 0.00 997.96 2047.80" xmlns="http://www.w3.org/2000/svg" xmlns:xlink="http://www.w3.org/1999/xlink">
<g id="graph0" class="graph" transform="scale(1 1) rotate(0) translate(144 1903.8)">
<title>%0</title>
<polygon fill="#ffffff" stroke="transparent" points="-144,144 -144,-1903.8 853.9554,-1903.8 853.9554,144 -144,144"/>
<!-- messages -->
<g id="node1" class="node">
<title>messages</title>
<polygon fill="#4477c9" stroke="transparent" points="617.9554,-1484 617.9554,-1682 701.9554,-1682 701.9554,-1484 617.9554,-1484"/>
<polygon fill="#add8e6" stroke="transparent" points="617.9554,-1664 617.9554,-1682 701.9554,-1682 701.9554,-1664 617.9554,-1664"/>
<polygon fill="none" stroke="#000000" points="617.9554,-1664 617.9554,-1682 701.9554,-1682 701.9554,-1664 617.9554,-1664"/>
<text text-anchor="start" x="640.7121" y="-1670.9" font-family="Times,serif" font-weight="bold" font-style="italic" font-size="9.00" fill="#000000"> messages </text>
<polygon fill="none" stroke="#000000" points="617.9554,-1644 617.9554,-1664 701.9554,-1664 701.9554,-1644 617.9554,-1644"/>
<text text-anchor="start" x="622.9554" y="-1650.9" font-family="Times,serif" font-size="9.00" fill="#000000">chatId: String</text>
<polygon fill="none" stroke="#000000" points="617.9554,-1624 617.9554,-1644 701.9554,-1644 701.9554,-1624 617.9554,-1624"/>
<text text-anchor="start" x="622.9554" y="-1630.9" font-family="Times,serif" font-size="9.00" fill="#000000">senderId: ObjectId</text>
<polygon fill="none" stroke="#000000" points="617.9554,-1604 617.9554,-1624 701.9554,-1624 701.9554,-1604 617.9554,-1604"/>
<text text-anchor="start" x="622.9554" y="-1610.9" font-family="Times,serif" font-size="9.00" fill="#000000">receiverId: ObjectId</text>
<polygon fill="none" stroke="#000000" points="617.9554,-1584 617.9554,-1604 701.9554,-1604 701.9554,-1584 617.9554,-1584"/>
<text text-anchor="start" x="622.8448" y="-1590.9" font-family="Times,serif" font-size="9.00" fill="#000000">propertyId: ObjectId</text>
<polygon fill="none" stroke="#000000" points="617.9554,-1564 617.9554,-1584 701.9554,-1584 701.9554,-1564 617.9554,-1564"/>
<text text-anchor="start" x="622.9554" y="-1570.9" font-family="Times,serif" font-size="9.00" fill="#000000">message: String</text>
<polygon fill="none" stroke="#000000" points="617.9554,-1544 617.9554,-1564 701.9554,-1564 701.9554,-1544 617.9554,-1544"/>
<text text-anchor="start" x="622.9554" y="-1550.9" font-family="Times,serif" font-size="9.00" fill="#000000">timestamp: Date</text>
<polygon fill="none" stroke="#000000" points="617.9554,-1524 617.9554,-1544 701.9554,-1544 701.9554,-1524 617.9554,-1524"/>
<text text-anchor="start" x="622.9554" y="-1530.9" font-family="Times,serif" font-size="9.00" fill="#000000">read: Boolean</text>
<polygon fill="none" stroke="#000000" points="617.9554,-1504 617.9554,-1524 701.9554,-1524 701.9554,-1504 617.9554,-1504"/>
<text text-anchor="start" x="622.9554" y="-1510.9" font-family="Times,serif" font-size="9.00" fill="#000000">_id: ObjectId</text>
<polygon fill="none" stroke="#000000" points="617.9554,-1484 617.9554,-1504 701.9554,-1504 701.9554,-1484 617.9554,-1484"/>
<text text-anchor="start" x="622.9554" y="-1490.9" font-family="Times,serif" font-size="9.00" fill="#000000">__v: Number</text>
</g>
<!-- notifications -->
<g id="node2" class="node">
<title>notifications</title>
<polygon fill="#4477c9" stroke="transparent" points="293.4952,-460 293.4952,-718 394.4952,-718 394.4952,-460 293.4952,-460"/>
<polygon fill="#add8e6" stroke="transparent" points="293.9952,-700 293.9952,-718 394.9952,-718 394.9952,-700 293.9952,-700"/>
<polygon fill="none" stroke="#000000" points="293.9952,-700 293.9952,-718 394.9952,-718 394.9952,-700 293.9952,-700"/>
<text text-anchor="start" x="319.7492" y="-706.9" font-family="Times,serif" font-weight="bold" font-style="italic" font-size="9.00" fill="#000000"> notifications </text>
<polygon fill="none" stroke="#000000" points="293.9952,-680 293.9952,-700 394.9952,-700 394.9952,-680 293.9952,-680"/>
<text text-anchor="start" x="298.9952" y="-686.9" font-family="Times,serif" font-size="9.00" fill="#000000">recipient: ObjectId</text>
<polygon fill="none" stroke="#000000" points="293.9952,-660 293.9952,-680 394.9952,-680 394.9952,-660 293.9952,-660"/>
<text text-anchor="start" x="298.9952" y="-666.9" font-family="Times,serif" font-size="9.00" fill="#000000">sender: ObjectId</text>
<polygon fill="none" stroke="#000000" points="293.9952,-640 293.9952,-660 394.9952,-660 394.9952,-640 293.9952,-640"/>
<text text-anchor="start" x="298.9952" y="-646.9" font-family="Times,serif" font-size="9.00" fill="#000000">type: String</text>
<polygon fill="none" stroke="#000000" points="293.9952,-620 293.9952,-640 394.9952,-640 394.9952,-620 293.9952,-620"/>
<text text-anchor="start" x="298.9952" y="-626.9" font-family="Times,serif" font-size="9.00" fill="#000000">title: String</text>
<polygon fill="none" stroke="#000000" points="293.9952,-600 293.9952,-620 394.9952,-620 394.9952,-600 293.9952,-600"/>
<text text-anchor="start" x="298.9952" y="-606.9" font-family="Times,serif" font-size="9.00" fill="#000000">message: String</text>
<polygon fill="none" stroke="#000000" points="293.9952,-580 293.9952,-600 394.9952,-600 394.9952,-580 293.9952,-580"/>
<text text-anchor="start" x="298.9952" y="-586.9" font-family="Times,serif" font-size="9.00" fill="#000000">read: Boolean</text>
<polygon fill="none" stroke="#000000" points="293.9952,-560 293.9952,-580 394.9952,-580 394.9952,-560 293.9952,-560"/>
<text text-anchor="start" x="298.9952" y="-566.9" font-family="Times,serif" font-size="9.00" fill="#000000">relatedEntity: ObjectId</text>
<polygon fill="none" stroke="#000000" points="293.9952,-540 293.9952,-560 394.9952,-560 394.9952,-540 293.9952,-540"/>
<text text-anchor="start" x="298.6298" y="-546.9" font-family="Times,serif" font-size="9.00" fill="#000000">relatedEntityType: String</text>
<polygon fill="none" stroke="#000000" points="293.9952,-520 293.9952,-540 394.9952,-540 394.9952,-520 293.9952,-520"/>
<text text-anchor="start" x="298.9952" y="-526.9" font-family="Times,serif" font-size="9.00" fill="#000000">createdAt: Date</text>
<polygon fill="none" stroke="#000000" points="293.9952,-500 293.9952,-520 394.9952,-520 394.9952,-500 293.9952,-500"/>
<text text-anchor="start" x="298.9952" y="-506.9" font-family="Times,serif" font-size="9.00" fill="#000000">_id: ObjectId</text>
<polygon fill="none" stroke="#000000" points="293.9952,-480 293.9952,-500 394.9952,-500 394.9952,-480 293.9952,-480"/>
<text text-anchor="start" x="298.9952" y="-486.9" font-family="Times,serif" font-size="9.00" fill="#000000">updatedAt: Date</text>
<polygon fill="none" stroke="#000000" points="293.9952,-460 293.9952,-480 394.9952,-480 394.9952,-460 293.9952,-460"/>
<text text-anchor="start" x="298.9952" y="-466.9" font-family="Times,serif" font-size="9.00" fill="#000000">__v: Number</text>
</g>
<!-- properties -->
<g id="node3" class="node">
<title>properties</title>
<polygon fill="#4477c9" stroke="transparent" points="302.9952,-951 302.9952,-1309 384.9952,-1309 384.9952,-951 302.9952,-951"/>
<polygon fill="#add8e6" stroke="transparent" points="302.9952,-1291 302.9952,-1309 384.9952,-1309 384.9952,-1291 302.9952,-1291"/>
<polygon fill="none" stroke="#000000" points="302.9952,-1291 302.9952,-1309 384.9952,-1309 384.9952,-1291 302.9952,-1291"/>
<text text-anchor="start" x="323.7528" y="-1297.9" font-family="Times,serif" font-weight="bold" font-style="italic" font-size="9.00" fill="#000000"> properties </text>
<polygon fill="none" stroke="#000000" points="302.9952,-1271 302.9952,-1291 384.9952,-1291 384.9952,-1271 302.9952,-1271"/>
<text text-anchor="start" x="307.9952" y="-1277.9" font-family="Times,serif" font-size="9.00" fill="#000000">title: String</text>
<polygon fill="none" stroke="#000000" points="302.9952,-1251 302.9952,-1271 384.9952,-1271 384.9952,-1251 302.9952,-1251"/>
<text text-anchor="start" x="307.9952" y="-1257.9" font-family="Times,serif" font-size="9.00" fill="#000000">description: String</text>
<polygon fill="none" stroke="#000000" points="302.9952,-1231 302.9952,-1251 384.9952,-1251 384.9952,-1231 302.9952,-1231"/>
<text text-anchor="start" x="307.9952" y="-1237.9" font-family="Times,serif" font-size="9.00" fill="#000000">price: Number</text>
<polygon fill="none" stroke="#000000" points="302.9952,-1211 302.9952,-1231 384.9952,-1231 384.9952,-1211 302.9952,-1211"/>
<text text-anchor="start" x="307.9952" y="-1217.9" font-family="Times,serif" font-size="9.00" fill="#000000">location: String</text>
<polygon fill="none" stroke="#000000" points="302.9952,-1191 302.9952,-1211 384.9952,-1211 384.9952,-1191 302.9952,-1191"/>
<text text-anchor="start" x="307.9952" y="-1197.9" font-family="Times,serif" font-size="9.00" fill="#000000">address: String</text>
<polygon fill="none" stroke="#000000" points="302.9952,-1171 302.9952,-1191 384.9952,-1191 384.9952,-1171 302.9952,-1171"/>
<text text-anchor="start" x="307.9952" y="-1177.9" font-family="Times,serif" font-size="9.00" fill="#000000">bedrooms: Number</text>
<polygon fill="none" stroke="#000000" points="302.9952,-1151 302.9952,-1171 384.9952,-1171 384.9952,-1151 302.9952,-1151"/>
<text text-anchor="start" x="307.8782" y="-1157.9" font-family="Times,serif" font-size="9.00" fill="#000000">bathrooms: Number</text>
<polygon fill="none" stroke="#000000" points="302.9952,-1131 302.9952,-1151 384.9952,-1151 384.9952,-1131 302.9952,-1131"/>
<text text-anchor="start" x="307.9952" y="-1137.9" font-family="Times,serif" font-size="9.00" fill="#000000">area: Number</text>
<polygon fill="none" stroke="#000000" points="302.9952,-1111 302.9952,-1131 384.9952,-1131 384.9952,-1111 302.9952,-1111"/>
<text text-anchor="start" x="307.9952" y="-1117.9" font-family="Times,serif" font-size="9.00" fill="#000000">type: String</text>
<polygon fill="none" stroke="#000000" points="302.9952,-1091 302.9952,-1111 384.9952,-1111 384.9952,-1091 302.9952,-1091"/>
<text text-anchor="start" x="307.9952" y="-1097.9" font-family="Times,serif" font-size="9.00" fill="#000000">status: String</text>
<polygon fill="none" stroke="#000000" points="302.9952,-1071 302.9952,-1091 384.9952,-1091 384.9952,-1071 302.9952,-1071"/>
<text text-anchor="start" x="307.9952" y="-1077.9" font-family="Times,serif" font-size="9.00" fill="#000000">features: Array</text>
<polygon fill="none" stroke="#000000" points="302.9952,-1051 302.9952,-1071 384.9952,-1071 384.9952,-1051 302.9952,-1051"/>
<text text-anchor="start" x="307.9952" y="-1057.9" font-family="Times,serif" font-size="9.00" fill="#000000">images: Array</text>
<polygon fill="none" stroke="#000000" points="302.9952,-1031 302.9952,-1051 384.9952,-1051 384.9952,-1031 302.9952,-1031"/>
<text text-anchor="start" x="307.9952" y="-1037.9" font-family="Times,serif" font-size="9.00" fill="#000000">landlord: ObjectId</text>
<polygon fill="none" stroke="#000000" points="302.9952,-1011 302.9952,-1031 384.9952,-1031 384.9952,-1011 302.9952,-1011"/>
<text text-anchor="start" x="307.9952" y="-1017.9" font-family="Times,serif" font-size="9.00" fill="#000000">createdAt: Date</text>
<polygon fill="none" stroke="#000000" points="302.9952,-991 302.9952,-1011 384.9952,-1011 384.9952,-991 302.9952,-991"/>
<text text-anchor="start" x="307.9952" y="-997.9" font-family="Times,serif" font-size="9.00" fill="#000000">updatedAt: Date</text>
<polygon fill="none" stroke="#000000" points="302.9952,-971 302.9952,-991 384.9952,-991 384.9952,-971 302.9952,-971"/>
<text text-anchor="start" x="307.9952" y="-977.9" font-family="Times,serif" font-size="9.00" fill="#000000">_id: ObjectId</text>
<polygon fill="none" stroke="#000000" points="302.9952,-951 302.9952,-971 384.9952,-971 384.9952,-951 302.9952,-951"/>
<text text-anchor="start" x="307.9952" y="-957.9" font-family="Times,serif" font-size="9.00" fill="#000000">__v: Number</text>
</g>
<!-- properties&#45;&gt;messages -->
<g id="edge3" class="edge">
<title>properties:15&#45;&gt;messages:3</title>
<path fill="none" stroke="#000000" stroke-dasharray="5,2" d="M384.9952,-981C474.592,-981 399.2941,-1299.0789 435.578,-1381 438.7324,-1388.1219 610.1662,-1594 617.9554,-1594"/>
<text text-anchor="middle" x="504.7667" y="-1548.2" font-family="Times,serif" font-size="14.00" fill="#000000">properties&#45;messages</text>
<text text-anchor="middle" x="612.9021" y="-1581.4" font-family="Times,serif" font-size="14.00" fill="#000000">N</text>
<text text-anchor="middle" x="388.4952" y="-968.4" font-family="Times,serif" font-size="14.00" fill="#000000">1</text>
</g>
<!-- rentals -->
<g id="node4" class="node">
<title>rentals</title>
<polygon fill="#4477c9" stroke="transparent" points="609.9554,-1097 609.9554,-1395 709.9554,-1395 709.9554,-1097 609.9554,-1097"/>
<polygon fill="#add8e6" stroke="transparent" points="609.9554,-1377 609.9554,-1395 709.9554,-1395 709.9554,-1377 609.9554,-1377"/>
<polygon fill="none" stroke="#000000" points="609.9554,-1377 609.9554,-1395 709.9554,-1395 709.9554,-1377 609.9554,-1377"/>
<text text-anchor="start" x="645.7111" y="-1383.9" font-family="Times,serif" font-weight="bold" font-style="italic" font-size="9.00" fill="#000000"> rentals </text>
<polygon fill="none" stroke="#000000" points="609.9554,-1357 609.9554,-1377 709.9554,-1377 709.9554,-1357 609.9554,-1357"/>
<text text-anchor="start" x="614.9554" y="-1363.9" font-family="Times,serif" font-size="9.00" fill="#000000">property: ObjectId</text>
<polygon fill="none" stroke="#000000" points="609.9554,-1337 609.9554,-1357 709.9554,-1357 709.9554,-1337 609.9554,-1337"/>
<text text-anchor="start" x="614.9554" y="-1343.9" font-family="Times,serif" font-size="9.00" fill="#000000">tenant: ObjectId</text>
<polygon fill="none" stroke="#000000" points="609.9554,-1317 609.9554,-1337 709.9554,-1337 709.9554,-1317 609.9554,-1317"/>
<text text-anchor="start" x="614.9554" y="-1323.9" font-family="Times,serif" font-size="9.00" fill="#000000">landlord: ObjectId</text>
<polygon fill="none" stroke="#000000" points="609.9554,-1297 609.9554,-1317 709.9554,-1317 709.9554,-1297 609.9554,-1297"/>
<text text-anchor="start" x="614.9554" y="-1303.9" font-family="Times,serif" font-size="9.00" fill="#000000">startDate: Date</text>
<polygon fill="none" stroke="#000000" points="609.9554,-1277 609.9554,-1297 709.9554,-1297 709.9554,-1277 609.9554,-1277"/>
<text text-anchor="start" x="614.9554" y="-1283.9" font-family="Times,serif" font-size="9.00" fill="#000000">duration: Number</text>
<polygon fill="none" stroke="#000000" points="609.9554,-1257 609.9554,-1277 709.9554,-1277 709.9554,-1257 609.9554,-1257"/>
<text text-anchor="start" x="614.9554" y="-1263.9" font-family="Times,serif" font-size="9.00" fill="#000000">endDate: Date</text>
<polygon fill="none" stroke="#000000" points="609.9554,-1237 609.9554,-1257 709.9554,-1257 709.9554,-1237 609.9554,-1237"/>
<text text-anchor="start" x="614.9554" y="-1243.9" font-family="Times,serif" font-size="9.00" fill="#000000">status: String</text>
<polygon fill="none" stroke="#000000" points="609.9554,-1217 609.9554,-1237 709.9554,-1237 709.9554,-1217 609.9554,-1217"/>
<text text-anchor="start" x="614.9554" y="-1223.9" font-family="Times,serif" font-size="9.00" fill="#000000">monthlyRent: Number</text>
<polygon fill="none" stroke="#000000" points="609.9554,-1197 609.9554,-1217 709.9554,-1217 709.9554,-1197 609.9554,-1197"/>
<text text-anchor="start" x="614.5936" y="-1203.9" font-family="Times,serif" font-size="9.00" fill="#000000">securityDeposit: Number</text>
<polygon fill="none" stroke="#000000" points="609.9554,-1177 609.9554,-1197 709.9554,-1197 709.9554,-1177 609.9554,-1177"/>
<text text-anchor="start" x="614.9554" y="-1183.9" font-family="Times,serif" font-size="9.00" fill="#000000">contract: String</text>
<polygon fill="none" stroke="#000000" points="609.9554,-1157 609.9554,-1177 709.9554,-1177 709.9554,-1157 609.9554,-1157"/>
<text text-anchor="start" x="614.9554" y="-1163.9" font-family="Times,serif" font-size="9.00" fill="#000000">createdAt: Date</text>
<polygon fill="none" stroke="#000000" points="609.9554,-1137 609.9554,-1157 709.9554,-1157 709.9554,-1137 609.9554,-1137"/>
<text text-anchor="start" x="614.9554" y="-1143.9" font-family="Times,serif" font-size="9.00" fill="#000000">updatedAt: Date</text>
<polygon fill="none" stroke="#000000" points="609.9554,-1117 609.9554,-1137 709.9554,-1137 709.9554,-1117 609.9554,-1117"/>
<text text-anchor="start" x="614.9554" y="-1123.9" font-family="Times,serif" font-size="9.00" fill="#000000">_id: ObjectId</text>
<polygon fill="none" stroke="#000000" points="609.9554,-1097 609.9554,-1117 709.9554,-1117 709.9554,-1097 609.9554,-1097"/>
<text text-anchor="start" x="614.9554" y="-1103.9" font-family="Times,serif" font-size="9.00" fill="#000000">__v: Number</text>
</g>
<!-- properties&#45;&gt;rentals -->
<g id="edge7" class="edge">
<title>properties:15&#45;&gt;rentals:0</title>
<path fill="none" stroke="#000000" stroke-dasharray="5,2" d="M384.9952,-981C484.2773,-981 510.6733,-1367 609.9554,-1367"/>
<text text-anchor="middle" x="504.7667" y="-1350.2" font-family="Times,serif" font-size="14.00" fill="#000000">properties&#45;rentals</text>
<text text-anchor="middle" x="604.9021" y="-1354.4" font-family="Times,serif" font-size="14.00" fill="#000000">N</text>
<text text-anchor="middle" x="388.4952" y="-985.2" font-family="Times,serif" font-size="14.00" fill="#000000">1</text>
</g>
<!-- rentalrequests -->
<g id="node5" class="node">
<title>rentalrequests</title>
<polygon fill="#4477c9" stroke="transparent" points="621.9554,0 621.9554,-258 697.9554,-258 697.9554,0 621.9554,0"/>
<polygon fill="#add8e6" stroke="transparent" points="621.9554,-240 621.9554,-258 697.9554,-258 697.9554,-240 621.9554,-240"/>
<polygon fill="none" stroke="#000000" points="621.9554,-240 621.9554,-258 697.9554,-258 697.9554,-240 621.9554,-240"/>
<text text-anchor="start" x="632.7173" y="-246.9" font-family="Times,serif" font-weight="bold" font-style="italic" font-size="9.00" fill="#000000"> rentalrequests </text>
<polygon fill="none" stroke="#000000" points="621.9554,-220 621.9554,-240 697.9554,-240 697.9554,-220 621.9554,-220"/>
<text text-anchor="start" x="626.5929" y="-226.9" font-family="Times,serif" font-size="9.00" fill="#000000">property: ObjectId</text>
<polygon fill="none" stroke="#000000" points="621.9554,-200 621.9554,-220 697.9554,-220 697.9554,-200 621.9554,-200"/>
<text text-anchor="start" x="626.9554" y="-206.9" font-family="Times,serif" font-size="9.00" fill="#000000">tenant: ObjectId</text>
<polygon fill="none" stroke="#000000" points="621.9554,-180 621.9554,-200 697.9554,-200 697.9554,-180 621.9554,-180"/>
<text text-anchor="start" x="626.8403" y="-186.9" font-family="Times,serif" font-size="9.00" fill="#000000">landlord: ObjectId</text>
<polygon fill="none" stroke="#000000" points="621.9554,-160 621.9554,-180 697.9554,-180 697.9554,-160 621.9554,-160"/>
<text text-anchor="start" x="626.9554" y="-166.9" font-family="Times,serif" font-size="9.00" fill="#000000">status: String</text>
<polygon fill="none" stroke="#000000" points="621.9554,-140 621.9554,-160 697.9554,-160 697.9554,-140 621.9554,-140"/>
<text text-anchor="start" x="626.9554" y="-146.9" font-family="Times,serif" font-size="9.00" fill="#000000">startDate: Date</text>
<polygon fill="none" stroke="#000000" points="621.9554,-120 621.9554,-140 697.9554,-140 697.9554,-120 621.9554,-120"/>
<text text-anchor="start" x="626.9554" y="-126.9" font-family="Times,serif" font-size="9.00" fill="#000000">endDate: Date</text>
<polygon fill="none" stroke="#000000" points="621.9554,-100 621.9554,-120 697.9554,-120 697.9554,-100 621.9554,-100"/>
<text text-anchor="start" x="626.9554" y="-106.9" font-family="Times,serif" font-size="9.00" fill="#000000">message: String</text>
<polygon fill="none" stroke="#000000" points="621.9554,-80 621.9554,-100 697.9554,-100 697.9554,-80 621.9554,-80"/>
<text text-anchor="start" x="626.9554" y="-86.9" font-family="Times,serif" font-size="9.00" fill="#000000">documents: Array</text>
<polygon fill="none" stroke="#000000" points="621.9554,-60 621.9554,-80 697.9554,-80 697.9554,-60 621.9554,-60"/>
<text text-anchor="start" x="626.9554" y="-66.9" font-family="Times,serif" font-size="9.00" fill="#000000">createdAt: Date</text>
<polygon fill="none" stroke="#000000" points="621.9554,-40 621.9554,-60 697.9554,-60 697.9554,-40 621.9554,-40"/>
<text text-anchor="start" x="626.9554" y="-46.9" font-family="Times,serif" font-size="9.00" fill="#000000">updatedAt: Date</text>
<polygon fill="none" stroke="#000000" points="621.9554,-20 621.9554,-40 697.9554,-40 697.9554,-20 621.9554,-20"/>
<text text-anchor="start" x="626.9554" y="-26.9" font-family="Times,serif" font-size="9.00" fill="#000000">_id: ObjectId</text>
<polygon fill="none" stroke="#000000" points="621.9554,0 621.9554,-20 697.9554,-20 697.9554,0 621.9554,0"/>
<text text-anchor="start" x="626.9554" y="-6.9" font-family="Times,serif" font-size="9.00" fill="#000000">__v: Number</text>
</g>
<!-- properties&#45;&gt;rentalrequests -->
<g id="edge10" class="edge">
<title>properties:15&#45;&gt;rentalrequests:0</title>
<path fill="none" stroke="#000000" stroke-dasharray="5,2" d="M384.9952,-981C444.6854,-981 419.2309,-774.6081 435.578,-717.2 451.451,-661.4567 563.9962,-230 621.9554,-230"/>
<text text-anchor="middle" x="504.7667" y="-721.2" font-family="Times,serif" font-size="14.00" fill="#000000">properties&#45;rentalrequests</text>
<text text-anchor="middle" x="616.9021" y="-217.4" font-family="Times,serif" font-size="14.00" fill="#000000">N</text>
<text text-anchor="middle" x="381.4952" y="-985.2" font-family="Times,serif" font-size="14.00" fill="#000000">1</text>
</g>
<!-- visits -->
<g id="node7" class="node">
<title>visits</title>
<polygon fill="#4477c9" stroke="transparent" points="621.9554,-570 621.9554,-768 697.9554,-768 697.9554,-570 621.9554,-570"/>
<polygon fill="#add8e6" stroke="transparent" points="621.9554,-750 621.9554,-768 697.9554,-768 697.9554,-750 621.9554,-750"/>
<polygon fill="none" stroke="#000000" points="621.9554,-750 621.9554,-768 697.9554,-768 697.9554,-750 621.9554,-750"/>
<text text-anchor="start" x="648.2036" y="-756.9" font-family="Times,serif" font-weight="bold" font-style="italic" font-size="9.00" fill="#000000"> visits </text>
<polygon fill="none" stroke="#000000" points="621.9554,-730 621.9554,-750 697.9554,-750 697.9554,-730 621.9554,-730"/>
<text text-anchor="start" x="626.5929" y="-736.9" font-family="Times,serif" font-size="9.00" fill="#000000">property: ObjectId</text>
<polygon fill="none" stroke="#000000" points="621.9554,-710 621.9554,-730 697.9554,-730 697.9554,-710 621.9554,-710"/>
<text text-anchor="start" x="626.9554" y="-716.9" font-family="Times,serif" font-size="9.00" fill="#000000">tenant: ObjectId</text>
<polygon fill="none" stroke="#000000" points="621.9554,-690 621.9554,-710 697.9554,-710 697.9554,-690 621.9554,-690"/>
<text text-anchor="start" x="626.9554" y="-696.9" font-family="Times,serif" font-size="9.00" fill="#000000">date: Date</text>
<polygon fill="none" stroke="#000000" points="621.9554,-670 621.9554,-690 697.9554,-690 697.9554,-670 621.9554,-670"/>
<text text-anchor="start" x="626.9554" y="-676.9" font-family="Times,serif" font-size="9.00" fill="#000000">time: String</text>
<polygon fill="none" stroke="#000000" points="621.9554,-650 621.9554,-670 697.9554,-670 697.9554,-650 621.9554,-650"/>
<text text-anchor="start" x="626.9554" y="-656.9" font-family="Times,serif" font-size="9.00" fill="#000000">notes: String</text>
<polygon fill="none" stroke="#000000" points="621.9554,-630 621.9554,-650 697.9554,-650 697.9554,-630 621.9554,-630"/>
<text text-anchor="start" x="626.9554" y="-636.9" font-family="Times,serif" font-size="9.00" fill="#000000">status: String</text>
<polygon fill="none" stroke="#000000" points="621.9554,-610 621.9554,-630 697.9554,-630 697.9554,-610 621.9554,-610"/>
<text text-anchor="start" x="626.9554" y="-616.9" font-family="Times,serif" font-size="9.00" fill="#000000">createdAt: Date</text>
<polygon fill="none" stroke="#000000" points="621.9554,-590 621.9554,-610 697.9554,-610 697.9554,-590 621.9554,-590"/>
<text text-anchor="start" x="626.9554" y="-596.9" font-family="Times,serif" font-size="9.00" fill="#000000">_id: ObjectId</text>
<polygon fill="none" stroke="#000000" points="621.9554,-570 621.9554,-590 697.9554,-590 697.9554,-570 621.9554,-570"/>
<text text-anchor="start" x="626.9554" y="-576.9" font-family="Times,serif" font-size="9.00" fill="#000000">__v: Number</text>
</g>
<!-- properties&#45;&gt;visits -->
<g id="edge13" class="edge">
<title>properties:15&#45;&gt;visits:0</title>
<path fill="none" stroke="#000000" stroke-dasharray="5,2" d="M384.9952,-981C535.209,-981 471.7416,-740 621.9554,-740"/>
<text text-anchor="middle" x="504.7667" y="-972.2" font-family="Times,serif" font-size="14.00" fill="#000000">properties&#45;visits</text>
<text text-anchor="middle" x="616.9021" y="-727.4" font-family="Times,serif" font-size="14.00" fill="#000000">N</text>
<text text-anchor="middle" x="388.4952" y="-985.2" font-family="Times,serif" font-size="14.00" fill="#000000">1</text>
</g>
<!-- users -->
<g id="node6" class="node">
<title>users</title>
<polygon fill="#4477c9" stroke="transparent" points="0,-812 0,-1130 113,-1130 113,-812 0,-812"/>
<polygon fill="#add8e6" stroke="transparent" points=".5,-1112 .5,-1130 113.5,-1130 113.5,-1112 .5,-1112"/>
<polygon fill="none" stroke="#000000" points=".5,-1112 .5,-1130 113.5,-1130 113.5,-1112 .5,-1112"/>
<text text-anchor="start" x="45.5043" y="-1118.9" font-family="Times,serif" font-weight="bold" font-style="italic" font-size="9.00" fill="#000000"> users </text>
<polygon fill="none" stroke="#000000" points=".5,-1092 .5,-1112 113.5,-1112 113.5,-1092 .5,-1092"/>
<text text-anchor="start" x="5.5" y="-1098.9" font-family="Times,serif" font-size="9.00" fill="#000000">name: String</text>
<polygon fill="none" stroke="#000000" points=".5,-1072 .5,-1092 113.5,-1092 113.5,-1072 .5,-1072"/>
<text text-anchor="start" x="5.5" y="-1078.9" font-family="Times,serif" font-size="9.00" fill="#000000">email: String</text>
<polygon fill="none" stroke="#000000" points=".5,-1052 .5,-1072 113.5,-1072 113.5,-1052 .5,-1052"/>
<text text-anchor="start" x="5.5" y="-1058.9" font-family="Times,serif" font-size="9.00" fill="#000000">password: String</text>
<polygon fill="none" stroke="#000000" points=".5,-1032 .5,-1052 113.5,-1052 113.5,-1032 .5,-1032"/>
<text text-anchor="start" x="5.5" y="-1038.9" font-family="Times,serif" font-size="9.00" fill="#000000">passwordConfirm: String</text>
<polygon fill="none" stroke="#000000" points=".5,-1012 .5,-1032 113.5,-1032 113.5,-1012 .5,-1012"/>
<text text-anchor="start" x="5.5" y="-1018.9" font-family="Times,serif" font-size="9.00" fill="#000000">userType: String</text>
<polygon fill="none" stroke="#000000" points=".5,-992 .5,-1012 113.5,-1012 113.5,-992 .5,-992"/>
<text text-anchor="start" x="5.5" y="-998.9" font-family="Times,serif" font-size="9.00" fill="#000000">phone: String</text>
<polygon fill="none" stroke="#000000" points=".5,-972 .5,-992 113.5,-992 113.5,-972 .5,-972"/>
<text text-anchor="start" x="5.5" y="-978.9" font-family="Times,serif" font-size="9.00" fill="#000000">favorites: Array</text>
<polygon fill="none" stroke="#000000" points=".5,-952 .5,-972 113.5,-972 113.5,-952 .5,-952"/>
<text text-anchor="start" x="5.5" y="-958.9" font-family="Times,serif" font-size="9.00" fill="#000000">active: Boolean</text>
<polygon fill="none" stroke="#000000" points=".5,-932 .5,-952 113.5,-952 113.5,-932 .5,-932"/>
<text text-anchor="start" x="5.1361" y="-938.9" font-family="Times,serif" font-size="9.00" fill="#000000">passwordResetToken: String</text>
<polygon fill="none" stroke="#000000" points=".5,-912 .5,-932 113.5,-932 113.5,-912 .5,-912"/>
<text text-anchor="start" x="5.394" y="-918.9" font-family="Times,serif" font-size="9.00" fill="#000000">passwordResetExpires: Date</text>
<polygon fill="none" stroke="#000000" points=".5,-892 .5,-912 113.5,-912 113.5,-892 .5,-892"/>
<text text-anchor="start" x="5.5" y="-898.9" font-family="Times,serif" font-size="9.00" fill="#000000">createdAt: Date</text>
<polygon fill="none" stroke="#000000" points=".5,-872 .5,-892 113.5,-892 113.5,-872 .5,-872"/>
<text text-anchor="start" x="5.5" y="-878.9" font-family="Times,serif" font-size="9.00" fill="#000000">updatedAt: Date</text>
<polygon fill="none" stroke="#000000" points=".5,-852 .5,-872 113.5,-872 113.5,-852 .5,-852"/>
<text text-anchor="start" x="5.5" y="-858.9" font-family="Times,serif" font-size="9.00" fill="#000000">passwordChangedAt: Date</text>
<polygon fill="none" stroke="#000000" points=".5,-832 .5,-852 113.5,-852 113.5,-832 .5,-832"/>
<text text-anchor="start" x="5.5" y="-838.9" font-family="Times,serif" font-size="9.00" fill="#000000">_id: ObjectId</text>
<polygon fill="none" stroke="#000000" points=".5,-812 .5,-832 113.5,-832 113.5,-812 .5,-812"/>
<text text-anchor="start" x="5.5" y="-818.9" font-family="Times,serif" font-size="9.00" fill="#000000">__v: Number</text>
</g>
<!-- users&#45;&gt;messages -->
<g id="edge1" class="edge">
<title>users:13&#45;&gt;messages:1</title>
<path fill="none" stroke="#000000" stroke-dasharray="5,2" d="M113,-842C204.9759,-842 82.564,-1605.3931 149,-1669 285.4237,-1799.6143 395.6465,-1731.2694 573.9554,-1669 597.5462,-1660.7616 592.9675,-1634 617.9554,-1634"/>
<text text-anchor="middle" x="343.9952" y="-1747.2" font-family="Times,serif" font-size="14.00" fill="#000000">users&#45;messages</text>
<text text-anchor="middle" x="612.9021" y="-1621.4" font-family="Times,serif" font-size="14.00" fill="#000000">N</text>
<text text-anchor="middle" x="116.5" y="-829.4" font-family="Times,serif" font-size="14.00" fill="#000000">1</text>
</g>
<!-- users&#45;&gt;messages -->
<g id="edge2" class="edge">
<title>users:13&#45;&gt;messages:2</title>
<path fill="none" stroke="#000000" stroke-dasharray="5,2" d="M113,-842C158.1774,-842 131.7351,-1205.2517 149,-1247 250.1429,-1491.5735 353.2932,-1614 617.9554,-1614"/>
<text text-anchor="middle" x="343.9952" y="-1574.2" font-family="Times,serif" font-size="14.00" fill="#000000">users&#45;messages</text>
<text text-anchor="middle" x="612.9021" y="-1601.4" font-family="Times,serif" font-size="14.00" fill="#000000">N</text>
<text text-anchor="middle" x="116.5" y="-846.2" font-family="Times,serif" font-size="14.00" fill="#000000">1</text>
</g>
<!-- users&#45;&gt;notifications -->
<g id="edge4" class="edge">
<title>users:13&#45;&gt;notifications:0</title>
<path fill="none" stroke="#000000" stroke-dasharray="5,2" d="M113,-842C141.0361,-842 129.1492,-809.9982 149,-790.2 155.9329,-783.2855 284.2036,-690 293.9952,-690"/>
<text text-anchor="middle" x="200.7062" y="-794.2" font-family="Times,serif" font-size="14.00" fill="#000000">users&#45;notifications</text>
<text text-anchor="middle" x="288.9419" y="-694.2" font-family="Times,serif" font-size="14.00" fill="#000000">N</text>
<text text-anchor="middle" x="109.5" y="-846.2" font-family="Times,serif" font-size="14.00" fill="#000000">1</text>
</g>
<!-- users&#45;&gt;notifications -->
<g id="edge5" class="edge">
<title>users:13&#45;&gt;notifications:1</title>
<path fill="none" stroke="#000000" stroke-dasharray="5,2" d="M113,-842C186.6696,-842 93.1822,-728.2789 149,-680.2 197.9472,-638.0392 229.3936,-670 293.9952,-670"/>
<text text-anchor="middle" x="200.7062" y="-684.2" font-family="Times,serif" font-size="14.00" fill="#000000">users&#45;notifications</text>
<text text-anchor="middle" x="288.9419" y="-674.2" font-family="Times,serif" font-size="14.00" fill="#000000">N</text>
<text text-anchor="middle" x="116.5" y="-846.2" font-family="Times,serif" font-size="14.00" fill="#000000">1</text>
</g>
<!-- users&#45;&gt;properties -->
<g id="edge6" class="edge">
<title>users:13&#45;&gt;properties:12</title>
<path fill="none" stroke="#000000" stroke-dasharray="5,2" d="M113,-842C149.9745,-842 126.0336,-888.0232 149,-917 203.5814,-985.8655 215.1227,-1041 302.9952,-1041"/>
<text text-anchor="middle" x="200.7062" y="-1036.2" font-family="Times,serif" font-size="14.00" fill="#000000">users&#45;properties</text>
<text text-anchor="middle" x="297.9419" y="-1028.4" font-family="Times,serif" font-size="14.00" fill="#000000">N</text>
<text text-anchor="middle" x="109.5" y="-829.4" font-family="Times,serif" font-size="14.00" fill="#000000">1</text>
</g>
<!-- users&#45;&gt;rentals -->
<g id="edge8" class="edge">
<title>users:13&#45;&gt;rentals:1</title>
<path fill="none" stroke="#000000" stroke-dasharray="5,2" d="M113,-842C163.636,-842 133.469,-1018.8047 149,-1067 191.3952,-1198.5591 171.0175,-1272.037 288.4124,-1345 409.7901,-1420.4384 467.0446,-1347 609.9554,-1347"/>
<text text-anchor="middle" x="343.9952" y="-1383.2" font-family="Times,serif" font-size="14.00" fill="#000000">users&#45;rentals</text>
<text text-anchor="middle" x="604.9021" y="-1334.4" font-family="Times,serif" font-size="14.00" fill="#000000">N</text>
<text text-anchor="middle" x="116.5" y="-829.4" font-family="Times,serif" font-size="14.00" fill="#000000">1</text>
</g>
<!-- users&#45;&gt;rentals -->
<g id="edge9" class="edge">
<title>users:13&#45;&gt;rentals:2</title>
<path fill="none" stroke="#000000" stroke-dasharray="5,2" d="M113,-842C319.6551,-842 431.2922,-753.4889 573.9554,-903 606.5953,-937.2066 562.6748,-1327 609.9554,-1327"/>
<text text-anchor="middle" x="343.9952" y="-828.2" font-family="Times,serif" font-size="14.00" fill="#000000">users&#45;rentals</text>
<text text-anchor="middle" x="604.9021" y="-1314.4" font-family="Times,serif" font-size="14.00" fill="#000000">N</text>
<text text-anchor="middle" x="109.5" y="-846.2" font-family="Times,serif" font-size="14.00" fill="#000000">1</text>
</g>
<!-- users&#45;&gt;rentalrequests -->
<g id="edge11" class="edge">
<title>users:13&#45;&gt;rentalrequests:1</title>
<path fill="none" stroke="#000000" stroke-dasharray="5,2" d="M113,-842C160.7235,-842 121.1257,-452.737 149,-414 282.7089,-228.1844 393.0329,-210 621.9554,-210"/>
<text text-anchor="middle" x="343.9952" y="-277.2" font-family="Times,serif" font-size="14.00" fill="#000000">users&#45;rentalrequests</text>
<text text-anchor="middle" x="616.9021" y="-197.4" font-family="Times,serif" font-size="14.00" fill="#000000">N</text>
<text text-anchor="middle" x="116.5" y="-846.2" font-family="Times,serif" font-size="14.00" fill="#000000">1</text>
</g>
<!-- users&#45;&gt;rentalrequests -->
<g id="edge12" class="edge">
<title>users:13&#45;&gt;rentalrequests:2</title>
<path fill="none" stroke="#000000" stroke-dasharray="5,2" d="M113,-842C175.1289,-842 117.5118,-337.5583 149,-284 257.6186,-99.2503 407.6415,-190 621.9554,-190"/>
<text text-anchor="middle" x="343.9952" y="-177.2" font-family="Times,serif" font-size="14.00" fill="#000000">users&#45;rentalrequests</text>
<text text-anchor="middle" x="616.9021" y="-177.4" font-family="Times,serif" font-size="14.00" fill="#000000">N</text>
<text text-anchor="middle" x="109.5" y="-829.4" font-family="Times,serif" font-size="14.00" fill="#000000">1</text>
</g>
<!-- users&#45;&gt;visits -->
<g id="edge14" class="edge">
<title>users:13&#45;&gt;visits:1</title>
<path fill="none" stroke="#000000" stroke-dasharray="5,2" d="M113,-842C158.5962,-842 133.0243,-682.7058 149,-640 191.2553,-527.0442 183.4908,-466.6642 288.4124,-407.2 319.8829,-389.3641 550.9774,-391.771 573.9554,-412 625.9485,-457.7727 552.6848,-720 621.9554,-720"/>
<text text-anchor="middle" x="343.9952" y="-412.2" font-family="Times,serif" font-size="14.00" fill="#000000">users&#45;visits</text>
<text text-anchor="middle" x="616.9021" y="-707.4" font-family="Times,serif" font-size="14.00" fill="#000000">N</text>
<text text-anchor="middle" x="116.5" y="-829.4" font-family="Times,serif" font-size="14.00" fill="#000000">1</text>
</g>
</g>
</svg>
